# Blender v3.1.2 OBJ File: 'SOLD_OUT.blend'
# www.blender.org
mtllib trialsoldout.mtl
o Cube.003
v 0.053913 7.748378 -1.157261
v 0.123372 6.085678 -1.176672
v 0.130263 5.920715 -0.065859
v 0.066024 7.458463 -0.045977
v -0.421445 7.728519 -1.157261
v -0.351986 6.065820 -1.176672
v -0.345094 5.900857 -0.065859
v -0.409334 7.438605 -0.045977
v -6.937733 14.900316 1.689175
v -6.810736 15.038385 1.746081
v -6.678665 15.181973 1.765296
v -6.546593 15.325560 1.746081
v -6.419597 15.463629 1.689175
v -6.302556 15.590875 1.596765
v -0.109360 3.111425 -0.824434
v -0.104966 3.006229 -0.357311
v -0.100881 2.908443 0.076897
v -0.092130 2.698958 1.007106
v -0.148263 4.042674 0.888866
v -0.129084 3.583564 -0.786325
v -0.138327 3.804841 0.092087
v -0.140965 3.867996 -0.218166
v -0.070865 2.189915 -0.898896
v -0.071176 2.197357 1.051366
v -0.086399 2.561766 0.071681
v -0.088765 2.618407 -0.419576
v 0.045710 3.012523 -0.357311
v 0.049795 2.914738 0.076897
v 0.064277 2.568060 0.071681
v 0.061911 2.624701 -0.419576
v 0.040744 8.063605 -3.515880
v 0.040756 8.063337 -2.072253
v 0.075960 7.220607 -1.792910
v 0.086887 6.959050 -2.316904
v 0.060966 7.579536 -2.570873
v 0.064537 7.494059 -3.247761
v 0.097434 6.706574 -3.164387
v 0.122853 6.098101 -2.303704
v 0.121117 6.139664 -1.721752
v 0.161446 5.174257 -1.434371
v 0.164390 5.103794 -3.225427
v 0.123508 6.082427 -3.806016
v 0.121912 6.120632 -3.164437
v 0.151567 5.410743 -3.027384
v 0.142494 5.627933 -2.045017
v 0.125931 6.024422 -2.678114
v 0.102652 6.581675 -3.524094
v 0.040750 8.063471 -2.794066
v -0.256233 8.051199 -3.515880
v -0.256221 8.050931 -2.072253
v -0.221017 7.208201 -1.792910
v -0.210090 6.946644 -2.316904
v -0.236011 7.567130 -2.570873
v -0.232440 7.481653 -3.247761
v -0.199543 6.694168 -3.164387
v -0.174124 6.085694 -2.303704
v -0.175860 6.127258 -1.721752
v -0.135531 5.161851 -1.434371
v -0.132587 5.091388 -3.225427
v -0.173469 6.070021 -3.806016
v -0.175065 6.108226 -3.164437
v -0.145410 5.398337 -3.027384
v -0.154483 5.615527 -2.045017
v -0.171046 6.012015 -2.678114
v -0.194325 6.569268 -3.524094
v -0.256227 8.051065 -2.794066
v -0.149784 3.708335 -3.510567
v -0.165678 4.172240 -2.976317
v -0.160011 4.206463 -2.506787
v -0.152616 4.029448 -1.784058
v -0.119561 3.238161 -1.388105
v -0.084354 2.395389 -1.669587
v -0.066171 1.960118 -2.281146
v -0.077118 2.222170 -3.074590
v -0.098182 2.726385 -3.501543
v -0.283681 3.290666 -2.634670
v -0.103602 2.856136 -2.743148
v -0.103848 2.862035 -2.291636
v -0.127180 3.400711 -2.373900
v -0.080215 4.220247 4.387802
v -0.020612 2.793450 4.347527
v -0.018256 2.737063 4.957329
v -0.096446 4.608781 5.176059
v -0.027727 2.433585 4.241129
v -0.012572 2.070825 4.995837
v -0.010187 2.013718 4.059753
v -0.001821 1.813453 4.949018
v -0.024725 2.361729 5.049145
v 0.058899 7.629021 0.612189
v 0.053396 7.760760 1.120557
v 0.175062 4.848324 0.225538
v 0.173311 4.890251 1.867090
v 0.144199 5.587117 1.781135
v 0.156755 5.286564 0.701324
v 0.041648 8.041973 0.670097
v 0.040993 8.057662 1.170866
v 0.200809 4.231987 4.387802
v 0.260413 2.805190 4.347527
v 0.262769 2.748803 4.957329
v 0.184578 4.620521 5.176059
v 0.275408 2.446248 4.241129
v 0.290562 2.083488 4.995837
v 0.292948 2.026381 4.059753
v 0.301314 1.826117 4.949018
v 0.278409 2.374392 5.049145
v -0.332356 7.612676 0.612189
v -0.337859 7.744415 1.120557
v -0.216193 4.831980 0.225538
v -0.217944 4.873906 1.867090
v -0.247056 5.570772 1.781135
v -0.234500 5.270219 0.701324
v -0.349607 8.025629 0.670097
v -0.350262 8.041317 1.170866
v -0.080215 4.220247 4.387802
v -0.020612 2.793450 4.347527
v -0.018256 2.737063 4.957329
v -0.096446 4.608781 5.176059
v -0.027727 2.433585 4.241129
v -0.012572 2.070825 4.995837
v -0.010187 2.013718 4.059753
v -0.001821 1.813453 4.949018
v -0.024725 2.361729 5.049145
v 0.037498 8.141313 2.589073
v 0.174569 4.860120 2.444054
v 0.102515 6.584953 4.456268
v -0.224119 8.130383 2.589073
v -0.087048 4.849191 2.444054
v -0.224856 6.625697 4.335190
v 0.222200 3.719935 -3.504375
v 0.202879 4.182452 -2.974950
v 0.201245 4.221554 -2.506787
v 0.208640 4.044539 -1.784058
v 0.241695 3.253253 -1.388105
v 0.276902 2.410480 -1.669587
v 0.295085 1.975210 -2.281146
v 0.284138 2.237262 -3.074590
v 0.263075 2.741476 -3.501543
v -0.149784 3.708335 -3.510567
v -0.165678 4.172240 -2.976317
v -0.160011 4.206463 -2.506787
v -0.152616 4.029448 -1.784058
v -0.119561 3.238161 -1.388105
v -0.084354 2.395389 -1.669587
v -0.066171 1.960118 -2.281146
v -0.077118 2.222170 -3.074590
v -0.098182 2.726385 -3.501543
v 0.246998 3.126313 -0.824434
v 0.251393 3.021115 -0.357311
v 0.255478 2.923330 0.076897
v 0.264229 2.713845 1.007106
v 0.208096 4.057561 0.888866
v 0.227275 3.598452 -0.786325
v 0.218031 3.819728 0.092087
v 0.215393 3.882882 -0.218166
v 0.285494 2.204802 -0.898896
v 0.285183 2.212244 1.051366
v -0.109360 3.111425 -0.824434
v -0.104966 3.006229 -0.357311
v -0.100881 2.908443 0.076897
v -0.092130 2.698958 1.007106
v -0.148263 4.042674 0.888866
v -0.129084 3.583564 -0.786325
v -0.138327 3.804841 0.092087
v -0.140965 3.867996 -0.218166
v -0.070865 2.189915 -0.898896
v -0.071176 2.197357 1.051366
v -0.141065 2.418043 2.243262
v -0.134623 2.263843 2.927979
v -0.193374 3.670234 1.658449
v -0.177768 3.296650 2.435672
v -0.168703 3.079641 2.887150
v -0.180407 3.359807 1.635481
v -0.204043 3.925619 1.678101
v -0.178906 3.323877 2.875882
v -0.177861 3.298883 3.463413
v -0.201617 3.867545 3.413153
v -0.125642 2.048850 2.162835
v -0.124968 2.032718 2.940201
v 0.275858 2.435459 2.243262
v 0.282300 2.281260 2.927979
v 0.223549 3.687651 1.658449
v 0.239155 3.314067 2.435672
v 0.248220 3.097058 2.887150
v 0.236516 3.377224 1.635481
v 0.212880 3.943036 1.678101
v 0.238018 3.341294 2.875882
v 0.239061 3.316300 3.463413
v 0.215306 3.884962 3.413153
v 0.291281 2.066267 2.162835
v 0.291955 2.050135 2.940201
v -0.256233 8.051199 -3.515880
v -0.256221 8.050931 -2.072253
v -0.221017 7.208201 -1.792910
v -0.210090 6.946644 -2.316904
v -0.236011 7.567130 -2.570873
v -0.232440 7.481653 -3.247761
v -0.199543 6.694168 -3.164387
v -0.174124 6.085694 -2.303704
v -0.175860 6.127258 -1.721752
v -0.135531 5.161851 -1.434371
v -0.132587 5.091388 -3.225427
v -0.173469 6.070021 -3.806016
v -0.175065 6.108226 -3.164437
v -0.145410 5.398337 -3.027384
v -0.154483 5.615527 -2.045017
v -0.171046 6.012015 -2.678114
v -0.194325 6.569268 -3.524094
v -0.256227 8.051065 -2.794066
v -0.141065 2.418043 2.243262
v -0.134623 2.263843 2.927979
v -0.193374 3.670234 1.658449
v -0.177768 3.296650 2.435672
v -0.168703 3.079641 2.887150
v -0.180407 3.359807 1.635481
v -0.204043 3.925619 1.678101
v -0.178906 3.323877 2.875882
v -0.177861 3.298883 3.463413
v -0.201617 3.867545 3.413153
v -0.125642 2.048850 2.162835
v -0.124968 2.032718 2.940201
v -0.421444 7.728519 -1.157261
v -0.351985 6.065820 -1.176672
v -0.345094 5.900857 -0.065859
v -0.409333 7.438605 -0.045977
v -0.393696 7.064281 -0.831373
v -0.372290 6.551867 -0.861985
v -0.373909 6.590630 -0.318437
v -0.332356 7.612676 0.612189
v -0.337859 7.744415 1.120557
v -0.216193 4.831980 0.225538
v -0.217944 4.873906 1.867090
v -0.247056 5.570772 1.781135
v -0.234500 5.270219 0.701324
v -0.349607 8.025629 0.670097
v -0.350262 8.041317 1.170866
v -0.224119 8.130383 2.589073
v -0.087048 4.849191 2.444054
v -0.224856 6.625697 4.335190
v -0.176211 6.983550 2.890834
v -0.138252 6.074888 2.854879
v -0.154685 6.468267 3.643458
vt 0.710769 0.599248
vt 0.702670 0.565735
vt 0.702670 0.565735
vt 0.710769 0.599248
vt 0.749117 0.568925
vt 0.749117 0.568925
vt 0.753726 0.599307
vt 0.753726 0.599307
vt 0.843309 0.627144
vt 0.805773 0.622199
vt 0.812416 0.603224
vt 0.837457 0.604458
vt 0.834726 0.593868
vt 0.810652 0.595608
vt 0.818598 0.582350
vt 0.831787 0.582476
vt 0.857529 0.583584
vt 0.857321 0.629771
vt 0.847142 0.605424
vt 0.845559 0.593610
vt 0.709774 0.503885
vt 0.707387 0.523841
vt 0.707387 0.523841
vt 0.709774 0.503885
vt 0.767972 0.519757
vt 0.748141 0.512620
vt 0.748141 0.512620
vt 0.767972 0.519757
vt 0.731773 0.509900
vt 0.731773 0.509900
vt 0.761905 0.546235
vt 0.761905 0.546235
vt 0.748770 0.537205
vt 0.748770 0.537205
vt 0.750829 0.526849
vt 0.750829 0.526849
vt 0.747609 0.553689
vt 0.747609 0.553689
vt 0.693872 0.537540
vt 0.693868 0.515427
vt 0.693868 0.515427
vt 0.693872 0.537540
vt 0.693864 0.493314
vt 0.693864 0.493314
vt 0.735262 0.500136
vt 0.735262 0.500136
vt 0.774578 0.564610
vt 0.774578 0.564610
vt 0.717413 0.548362
vt 0.717413 0.548362
vt 0.776546 0.515731
vt 0.776546 0.515731
vt 0.724720 0.533641
vt 0.724720 0.533641
vt 0.749208 0.494675
vt 0.749208 0.494675
vt 0.842537 0.518585
vt 0.856623 0.531302
vt 0.863943 0.551379
vt 0.851784 0.564473
vt 0.838748 0.547774
vt 0.838913 0.536685
vt 0.825012 0.534396
vt 0.815204 0.513752
vt 0.823687 0.543820
vt 0.828241 0.568729
vt 0.806136 0.556899
vt 0.801192 0.537699
vt 0.802284 0.525491
vt 0.842333 0.726476
vt 0.790047 0.742632
vt 0.800900 0.718556
vt 0.840757 0.710051
vt 0.860918 0.724003
vt 0.852792 0.727020
vt 0.850784 0.705296
vt 0.868108 0.723281
vt 0.862513 0.701593
vt 0.694030 0.637806
vt 0.694468 0.622059
vt 0.694468 0.622059
vt 0.694030 0.637806
vt 0.706004 0.620042
vt 0.783683 0.606866
vt 0.783683 0.606866
vt 0.706004 0.620042
vt 0.842333 0.726476
vt 0.790047 0.742632
vt 0.790047 0.742632
vt 0.842333 0.726476
vt 0.862513 0.701593
vt 0.868108 0.723281
vt 0.868108 0.723281
vt 0.862513 0.701593
vt 0.860918 0.724003
vt 0.852792 0.727020
vt 0.852792 0.727020
vt 0.860918 0.724003
vt 0.850784 0.705296
vt 0.850784 0.705296
vt 0.771441 0.620336
vt 0.702324 0.636104
vt 0.702324 0.636104
vt 0.771441 0.620336
vt 0.782512 0.651112
vt 0.782512 0.651112
vt 0.763045 0.650785
vt 0.763045 0.650785
vt 0.800900 0.718556
vt 0.840757 0.710051
vt 0.840757 0.710051
vt 0.800900 0.718556
vt 0.691693 0.682502
vt 0.783353 0.666976
vt 0.783353 0.666976
vt 0.691693 0.682502
vt 0.735170 0.731780
vt 0.735170 0.731780
vt 0.802284 0.525491
vt 0.815204 0.513752
vt 0.815204 0.513752
vt 0.802284 0.525491
vt 0.828241 0.568729
vt 0.806136 0.556899
vt 0.806136 0.556899
vt 0.828241 0.568729
vt 0.856623 0.531302
vt 0.863943 0.551379
vt 0.863943 0.551379
vt 0.856623 0.531302
vt 0.842537 0.518585
vt 0.842537 0.518585
vt 0.851784 0.564473
vt 0.851784 0.564473
vt 0.801192 0.537699
vt 0.801192 0.537699
vt 0.843309 0.627144
vt 0.805773 0.622199
vt 0.805773 0.622199
vt 0.843309 0.627144
vt 0.834726 0.593868
vt 0.810652 0.595608
vt 0.810652 0.595608
vt 0.834726 0.593868
vt 0.857529 0.583584
vt 0.857321 0.629771
vt 0.857321 0.629771
vt 0.857529 0.583584
vt 0.818598 0.582350
vt 0.818598 0.582350
vt 0.812416 0.603224
vt 0.812416 0.603224
vt 0.831787 0.582476
vt 0.831787 0.582476
vt 0.837457 0.604458
vt 0.837457 0.604458
vt 0.816106 0.641275
vt 0.824778 0.641209
vt 0.826542 0.660541
vt 0.851086 0.657292
vt 0.855393 0.673991
vt 0.832604 0.671733
vt 0.825781 0.672580
vt 0.826480 0.688466
vt 0.810594 0.689869
vt 0.808972 0.642803
vt 0.861399 0.656551
vt 0.861850 0.675009
vt 0.832604 0.671733
vt 0.825781 0.672580
vt 0.825781 0.672580
vt 0.832604 0.671733
vt 0.810594 0.689869
vt 0.808972 0.642803
vt 0.808972 0.642803
vt 0.810594 0.689869
vt 0.824778 0.641209
vt 0.826542 0.660541
vt 0.826542 0.660541
vt 0.824778 0.641209
vt 0.861850 0.675009
vt 0.855393 0.673991
vt 0.855393 0.673991
vt 0.861850 0.675009
vt 0.749208 0.494675
vt 0.776546 0.515731
vt 0.774578 0.564610
vt 0.747609 0.553689
vt 0.748770 0.537205
vt 0.731773 0.509900
vt 0.709774 0.503885
vt 0.707387 0.523841
vt 0.724720 0.533641
vt 0.717413 0.548362
vt 0.693872 0.537540
vt 0.693868 0.515427
vt 0.693864 0.493314
vt 0.735262 0.500136
vt 0.750829 0.526849
vt 0.761905 0.546235
vt 0.767972 0.519757
vt 0.748141 0.512620
vt 0.851086 0.657292
vt 0.851086 0.657292
vt 0.861399 0.656551
vt 0.861399 0.656551
vt 0.826480 0.688466
vt 0.826480 0.688466
vt 0.816106 0.641275
vt 0.816106 0.641275
vt 0.753726 0.599307
vt 0.710769 0.599248
vt 0.702670 0.565735
vt 0.749117 0.568925
vt 0.735540 0.576663
vt 0.721226 0.576610
vt 0.734457 0.591877
vt 0.706004 0.620042
vt 0.783683 0.606866
vt 0.782512 0.651112
vt 0.763045 0.650785
vt 0.771441 0.620336
vt 0.702324 0.636104
vt 0.694030 0.637806
vt 0.694468 0.622059
vt 0.691693 0.682502
vt 0.783353 0.666976
vt 0.749114 0.683211
vt 0.723730 0.687387
vt 0.738125 0.707635
vt 0.735170 0.731780
vn -0.0404 0.9667 0.2526
vn -0.0005 0.0117 -0.9999
vn 0.0005 -0.0129 0.9999
vn 0.0413 -0.9883 -0.1470
vn -0.9991 -0.0417 0.0000
vn 0.0414 -0.9912 0.1254
vn -0.0079 0.1892 0.9819
vn -0.0044 0.1051 0.9945
vn -0.0408 0.9755 -0.2161
vn -0.0341 0.8156 0.5776
vn 0.0354 -0.8466 -0.5311
vn -0.0416 0.9966 -0.0713
vn -0.0417 0.9991 0.0002
vn 0.0348 -0.8342 -0.5504
vn -0.0119 0.2848 0.9585
vn -0.0131 0.3141 0.9493
vn -0.0002 0.0055 -1.0000
vn 0.0417 -0.9984 0.0393
vn 0.0373 -0.8938 0.4469
vn 0.0213 -0.5095 -0.8602
vn 0.0158 -0.3782 -0.9256
vn -0.0417 0.9974 -0.0595
vn -0.9956 -0.0836 -0.0416
vn -0.9998 0.0067 0.0169
vn -0.0417 0.9986 -0.0313
vn -0.0057 0.1375 -0.9905
vn 0.0048 -0.1159 0.9933
vn 0.0407 -0.9747 -0.2199
vn 0.0075 -0.1799 0.9836
vn -0.0416 0.9952 0.0887
vn 0.0070 -0.1668 0.9860
vn 0.0417 -0.9988 0.0256
vn -0.0058 0.1386 -0.9903
vn -0.0051 0.1222 0.9925
vn -0.0402 0.9625 -0.2684
vn -0.0012 0.0282 -0.9996
vn -0.0374 0.8960 -0.4424
vn 0.0416 -0.9949 -0.0922
vn -0.0165 0.3959 -0.9181
vn 0.0075 -0.1787 0.9839
vn -0.0018 0.0441 -0.9990
vn -0.1715 -0.7379 0.6527
vn -0.0941 0.7588 0.6445
vn -0.0155 0.7537 -0.6570
vn -0.0187 0.4468 0.8944
vn 0.0396 -0.9486 -0.3139
vn 0.0270 -0.6453 -0.7634
vn 0.0132 -0.3163 0.9486
vn -0.0344 0.9964 -0.0778
vn 0.0086 -0.0056 -0.9999
vn 0.0340 -0.8138 0.5802
vn -0.0405 0.9704 0.2381
vn -0.0037 0.0875 0.9962
vn 0.0066 -0.1591 0.9872
vn 0.0417 -0.9991 0.0038
vn -0.0037 0.0877 0.9961
vn -0.0373 0.8933 -0.4480
vn -0.0400 0.9573 -0.2863
vn -0.0034 0.0804 -0.9968
vn -0.0007 0.0169 -0.9999
vn -0.0034 0.0803 -0.9968
vn -0.0019 0.0460 0.9989
vn -0.0417 0.9986 0.0335
vn 0.0416 -0.9960 -0.0788
vn -0.0022 0.0527 0.9986
vn -0.0089 0.2136 -0.9769
vn -0.0089 0.2125 -0.9771
vn 0.0417 -0.9982 -0.0425
vn -0.0021 0.0499 0.9988
vn 0.0417 -0.9989 -0.0208
vn -0.0031 0.0737 -0.9973
vn -0.0037 0.0879 0.9961
vn -0.0032 0.0766 -0.9971
vn -0.9977 -0.0607 -0.0301
vn -0.9982 0.0022 -0.0592
usemtl Material.004
s off
f 4/1/1 1/2/1 5/3/1 8/4/1
f 1/2/2 2/5/2 6/6/2 5/3/2
f 3/7/3 4/1/3 8/4/3 7/8/3
f 2/5/4 3/7/4 7/8/4 6/6/4
usemtl Material.012
f 18/9/5 19/10/5 21/11/5 17/12/5
f 16/13/5 22/14/5 20/15/5 15/16/5
f 15/16/5 23/17/5 24/18/5 18/9/5 17/12/5 25/19/5 26/20/5 16/13/5
usemtl Material.006
f 36/21/6 35/22/6 53/23/6 54/24/6
f 44/25/7 43/26/7 61/27/7 62/28/7
f 37/29/8 36/21/8 54/24/8 55/30/8
f 45/31/9 44/25/9 62/28/9 63/32/9
f 38/33/10 37/29/10 55/30/10 56/34/10
f 46/35/11 45/31/11 63/32/11 64/36/11
f 39/37/12 38/33/12 56/34/12 57/38/12
f 32/39/13 48/40/13 66/41/13 50/42/13
f 48/40/13 31/43/13 49/44/13 66/41/13
f 47/45/14 46/35/14 64/36/14 65/46/14
f 40/47/15 39/37/15 57/38/15 58/48/15
f 33/49/16 32/39/16 50/42/16 51/50/16
f 31/43/17 47/45/17 65/46/17 49/44/17
f 41/51/18 40/47/18 58/48/18 59/52/18
f 34/53/19 33/49/19 51/50/19 52/54/19
f 42/55/20 41/51/20 59/52/20 60/56/20
f 35/22/21 34/53/21 52/54/21 53/23/21
f 43/26/22 42/55/22 60/56/22 61/27/22
f 75/57/23 74/58/23 73/59/23 72/60/23 78/61/23 77/62/23 76/63/23 67/64/23
f 67/64/24 76/63/24 79/65/24 78/61/24 72/60/24 71/66/24 70/67/24 69/68/24 68/69/24
f 82/70/5 83/71/5 80/72/5 81/73/5
f 85/74/5 88/75/5 84/76/5
f 84/76/5 87/77/5 85/74/5
f 87/77/5 84/76/5 86/78/5
usemtl Material.002
f 96/79/25 95/80/25 112/81/25 113/82/25
f 89/83/26 91/84/26 108/85/26 106/86/26
f 99/87/27 100/88/27 117/89/27 116/90/27
f 103/91/28 104/92/28 121/93/28 120/94/28
f 102/95/29 105/96/29 122/97/29 119/98/29
f 105/96/30 101/99/30 118/100/30 122/97/30
f 94/101/31 90/102/31 107/103/31 111/104/31
f 91/84/32 92/105/32 109/106/32 108/85/32
f 95/80/33 89/83/33 106/86/33 112/81/33
f 92/105/34 93/107/34 110/108/34 109/106/34
f 90/102/31 96/79/31 113/82/31 107/103/31
f 93/107/35 94/101/35 111/104/35 110/108/35
f 97/109/36 98/110/36 115/111/36 114/112/36
f 100/88/37 97/109/37 114/112/37 117/89/37
f 98/110/38 99/87/38 116/90/38 115/111/38
f 101/99/39 103/91/39 120/94/39 118/100/39
f 104/92/40 102/95/40 119/98/40 121/93/40
usemtl Material.009
f 123/113/41 124/114/41 127/115/41 126/116/41
f 124/114/42 125/117/42 128/118/42 127/115/42
f 125/117/43 123/113/43 126/116/43 128/118/43
usemtl Material.011
f 130/119/44 129/120/44 138/121/44 139/122/44
f 133/123/45 132/124/45 141/125/45 142/126/45
f 136/127/46 135/128/46 144/129/46 145/130/46
f 137/131/47 136/127/47 145/130/47 146/132/47
f 134/133/48 133/123/48 142/126/48 143/134/48
f 131/135/49 130/119/49 139/122/49 140/136/49
f 129/120/50 137/131/50 146/132/50 138/121/50
f 135/128/51 134/133/51 143/134/51 144/129/51
f 132/124/52 131/135/52 140/136/52 141/125/52
usemtl Material.007
f 150/137/53 151/138/53 161/139/53 160/140/53
f 148/141/54 154/142/54 164/143/54 158/144/54
f 155/145/55 156/146/55 166/147/55 165/148/55
f 156/146/56 150/137/56 160/140/56 166/147/56
f 154/142/57 152/149/57 162/150/57 164/143/57
f 151/138/58 153/151/58 163/152/58 161/139/58
f 147/153/59 155/145/59 165/148/59 157/154/59
f 153/151/60 149/155/60 159/156/60 163/152/60
f 152/149/61 147/153/61 157/154/61 162/150/61
f 169/157/5 172/158/5 170/159/5
f 170/159/5 167/160/5 168/161/5 171/162/5
f 171/162/5 174/163/5 175/164/5 176/165/5 173/166/5 169/157/5 170/159/5
f 167/160/5 177/167/5 178/168/5 168/161/5
usemtl Material.005
f 183/169/62 186/170/62 216/171/62 213/172/62
f 188/173/63 185/174/63 215/175/63 218/176/63
f 184/177/64 182/178/64 212/179/64 214/180/64
f 190/181/65 180/182/65 210/183/65 220/184/65
f 202/185/5 201/186/5 200/187/5 199/188/5 198/189/5 197/190/5 196/191/5 195/192/5 194/193/5 193/194/5 192/195/5 208/196/5 191/197/5 207/198/5 206/199/5 205/200/5 204/201/5 203/202/5
f 182/178/66 179/203/66 209/204/66 212/179/66
f 179/203/67 189/205/67 219/206/67 209/204/67
f 186/170/68 187/207/68 217/208/68 216/171/68
f 180/182/69 183/169/69 213/172/69 210/183/69
f 189/205/70 190/181/70 220/184/70 219/206/70
f 181/209/71 184/177/71 214/180/71 211/210/71
f 187/207/72 188/173/72 218/176/72 217/208/72
f 185/174/73 181/209/73 211/210/73 215/175/73
usemtl Material.003
f 223/211/5 224/212/5 221/213/5 222/214/5 226/215/5 225/216/5 227/217/5
f 227/217/5 226/215/5 222/214/5 223/211/5
usemtl Material.001
f 228/218/5 230/219/5 231/220/5 232/221/5 233/222/5 229/223/5
f 229/223/5 235/224/5 234/225/5 228/218/5
usemtl Material.008
f 236/226/74 237/227/74 240/228/74 239/229/74 241/230/74 238/231/74
f 238/231/75 241/230/75 240/228/75 237/227/75
l 10 9
l 11 10
l 12 11
l 13 12
l 14 13
l 28 29
l 30 27
